<?xml version="1.0" standalone="no"?>
<!DOCTYPE svg PUBLIC "-//W3C//DTD SVG 20010904//EN"
 "http://www.w3.org/TR/2001/REC-SVG-20010904/DTD/svg10.dtd">
<svg version="1.0" xmlns="http://www.w3.org/2000/svg"
 width="100.000000pt" height="100.000000pt" viewBox="0 0 100.000000 100.000000"
 preserveAspectRatio="xMidYMid meet">

<g transform="translate(0.000000,100.000000) scale(0.100000,-0.100000)"
fill="#000000" stroke="none">
<path d="M327 870 c-124 -125 -197 -252 -233 -409 -28 -120 5 -230 94 -313 85
-80 202 -107 311 -71 51 16 59 26 42 51 -7 11 -18 10 -65 -3 -132 -39 -261 24
-318 153 -57 129 21 355 180 524 l67 70 65 -71 c65 -72 66 -72 84 -52 18 19
16 21 -67 108 l-85 87 -75 -74z"/>
<path d="M620 731 c-49 -51 -83 -99 -110 -155 -81 -162 -71 -282 30 -368 89
-77 217 -77 301 -1 60 54 83 105 83 183 0 116 -54 226 -172 351 l-61 64 -71
-74z m130 -68 c75 -85 120 -183 120 -264 0 -79 -21 -123 -79 -164 -87 -61
-213 -29 -262 67 -31 61 -24 142 22 238 33 68 119 180 139 180 5 0 32 -26 60
-57z"/>
<path d="M587 496 c-38 -81 -31 -150 23 -201 24 -23 32 -26 45 -15 21 17 19
31 -10 59 -29 27 -34 89 -10 135 12 22 12 32 4 42 -18 22 -34 16 -52 -20z"/>
<path d="M233 514 c-18 -40 -26 -74 -26 -118 -1 -72 16 -109 69 -156 35 -31
38 -31 51 -14 18 24 17 31 -8 44 -58 32 -76 132 -38 221 17 40 19 52 9 64 -20
25 -30 18 -57 -41z"/>
</g>
</svg>
