<?xml version="1.0" standalone="no"?>
<!DOCTYPE svg PUBLIC "-//W3C//DTD SVG 20010904//EN"
 "http://www.w3.org/TR/2001/REC-SVG-20010904/DTD/svg10.dtd">
<svg version="1.0" xmlns="http://www.w3.org/2000/svg"
 width="100.000000pt" height="100.000000pt" viewBox="0 0 100.000000 100.000000"
 preserveAspectRatio="xMidYMid meet">

<g transform="translate(0.000000,100.000000) scale(0.100000,-0.100000)"
fill="#000000" stroke="none">
<path d="M399 986 c-160 -46 -272 -171 -301 -336 -34 -197 101 -401 300 -451
l67 -17 3 -61 3 -61 -194 0 c-161 0 -197 -3 -207 -15 -10 -12 -10 -18 0 -30
11 -13 69 -15 439 -13 l426 3 0 25 0 25 -203 3 -203 2 3 62 3 63 43 7 c251 43
401 332 293 564 -66 141 -199 232 -347 240 -48 2 -97 -2 -125 -10z m199 -64
c122 -38 204 -124 238 -250 41 -147 -38 -317 -179 -388 -208 -106 -454 19
-496 252 -31 170 80 343 249 388 75 20 117 19 188 -2z"/>
<path d="M428 866 c-91 -25 -168 -99 -198 -189 -28 -88 0 -231 44 -225 23 3
22 2 10 119 -15 135 79 239 216 239 68 0 125 -25 167 -73 42 -48 57 -97 49
-166 -13 -118 -13 -116 12 -119 52 -8 76 158 35 249 -58 130 -204 202 -335
165z"/>
<path d="M436 649 c-35 -42 -34 -82 4 -121 29 -28 30 -33 30 -118 0 -66 4 -91
15 -100 12 -10 18 -10 30 0 11 9 15 34 15 99 0 84 1 88 30 116 61 59 24 155
-60 155 -30 0 -44 -6 -64 -31z m92 -57 c4 -28 -24 -40 -45 -19 -21 21 -9 49
19 45 15 -2 24 -11 26 -26z"/>
</g>
</svg>
