<?xml version="1.0" standalone="no"?>
<!DOCTYPE svg PUBLIC "-//W3C//DTD SVG 20010904//EN"
 "http://www.w3.org/TR/2001/REC-SVG-20010904/DTD/svg10.dtd">
<svg version="1.0" xmlns="http://www.w3.org/2000/svg"
 width="100.000000pt" height="100.000000pt" viewBox="0 0 100.000000 100.000000"
 preserveAspectRatio="xMidYMid meet">

<g transform="translate(0.000000,100.000000) scale(0.100000,-0.100000)"
fill="#000000" stroke="none">
<path d="M383 811 c-51 -54 -93 -102 -93 -108 0 -5 9 -18 19 -27 24 -22 40
-14 101 49 l45 46 5 -107 c4 -87 8 -109 23 -118 12 -8 22 -8 35 0 14 9 17 29
20 119 l3 107 59 -56 c32 -31 63 -56 69 -56 15 0 41 30 41 47 0 9 -41 58 -92
109 -71 73 -98 94 -117 93 -19 -1 -51 -27 -118 -98z"/>
<path d="M150 600 c-11 -11 -20 -24 -20 -29 0 -4 22 -29 49 -55 52 -48 72 -51
92 -14 9 17 4 27 -37 69 -27 27 -52 49 -56 49 -4 0 -17 -9 -28 -20z"/>
<path d="M780 583 c-58 -52 -65 -68 -40 -93 25 -25 48 -16 97 39 38 42 40 52
15 74 -25 23 -26 22 -72 -20z"/>
<path d="M425 487 c-92 -35 -148 -100 -168 -192 -13 -63 0 -88 42 -83 22 3 27
10 37 53 19 87 52 126 125 145 98 27 188 -40 207 -153 6 -33 12 -43 30 -45 40
-6 55 16 48 71 -6 59 -44 127 -89 161 -67 51 -164 69 -232 43z"/>
<path d="M12 278 c-16 -16 -15 -43 2 -57 23 -19 136 -10 150 12 8 12 8 22 0
35 -14 21 -132 30 -152 10z"/>
<path d="M840 270 c-8 -14 -8 -26 0 -40 10 -18 19 -21 77 -18 50 2 69 7 77 21
21 33 -4 52 -77 55 -58 3 -67 0 -77 -18z"/>
<path d="M12 108 c-15 -15 -15 -41 0 -56 9 -9 131 -12 489 -12 519 0 509 -1
495 55 l-6 25 -483 0 c-362 0 -486 -3 -495 -12z"/>
</g>
</svg>
