<?xml version="1.0" standalone="no"?>
<!DOCTYPE svg PUBLIC "-//W3C//DTD SVG 20010904//EN"
 "http://www.w3.org/TR/2001/REC-SVG-20010904/DTD/svg10.dtd">
<svg version="1.0" xmlns="http://www.w3.org/2000/svg"
 width="100.000000pt" height="100.000000pt" viewBox="0 0 100.000000 100.000000"
 preserveAspectRatio="xMidYMid meet">

<g transform="translate(0.000000,100.000000) scale(0.100000,-0.100000)"
fill="#000000" stroke="none">
<path d="M478 949 c-15 -9 -18 -26 -18 -117 l0 -106 -53 52 c-29 29 -62 52
-73 52 -23 0 -44 -18 -44 -38 0 -20 190 -212 210 -212 20 0 210 191 210 211 0
25 -27 42 -53 35 -13 -3 -43 -26 -66 -51 -23 -25 -44 -45 -46 -45 -3 0 -5 46
-5 103 0 121 -13 145 -62 116z"/>
<path d="M162 613 c-7 -3 -17 -14 -23 -25 -9 -18 -4 -27 37 -69 27 -27 54 -49
61 -49 7 0 20 11 29 26 17 25 16 26 -22 65 -44 46 -64 58 -82 52z"/>
<path d="M780 584 c-58 -53 -65 -69 -40 -94 11 -11 24 -20 29 -20 18 0 102 91
99 107 -2 9 -13 22 -25 30 -20 13 -24 12 -63 -23z"/>
<path d="M431 489 c-87 -26 -154 -100 -174 -194 -13 -63 0 -88 42 -83 22 3 27
10 37 55 24 109 108 169 203 143 73 -19 115 -70 129 -153 6 -33 12 -43 30 -45
40 -6 55 16 48 71 -17 148 -170 247 -315 206z"/>
<path d="M12 278 c-16 -16 -15 -43 2 -57 23 -19 136 -10 150 12 8 12 8 22 0
35 -14 21 -132 30 -152 10z"/>
<path d="M840 270 c-8 -14 -8 -26 0 -40 10 -18 19 -21 77 -18 50 2 69 7 77 21
21 33 -4 52 -77 55 -58 3 -67 0 -77 -18z"/>
<path d="M12 108 c-15 -15 -15 -41 0 -56 9 -9 131 -12 489 -12 519 0 509 -1
495 55 l-6 25 -483 0 c-362 0 -486 -3 -495 -12z"/>
</g>
</svg>
