<?xml version="1.0" standalone="no"?>
<!DOCTYPE svg PUBLIC "-//W3C//DTD SVG 20010904//EN"
 "http://www.w3.org/TR/2001/REC-SVG-20010904/DTD/svg10.dtd">
<svg version="1.0" xmlns="http://www.w3.org/2000/svg"
 width="100.000000pt" height="100.000000pt" viewBox="0 0 100.000000 100.000000"
 preserveAspectRatio="xMidYMid meet">

<g transform="translate(0.000000,100.000000) scale(0.100000,-0.100000)"
fill="#000000" stroke="none">
<path d="M463 855 c-40 -18 -57 -33 -72 -64 -30 -58 -28 -71 14 -71 25 0 38 5
42 18 13 36 36 52 74 52 28 0 42 -6 53 -22 20 -28 20 -68 2 -94 -13 -18 -32
-19 -258 -24 l-243 -5 0 -35 0 -35 210 -3 c254 -4 285 0 330 39 88 77 62 201
-53 250 -24 11 -44 19 -45 18 -1 0 -25 -11 -54 -24z"/>
<path d="M795 710 c-31 -12 -74 -63 -84 -98 -11 -37 -7 -42 33 -42 26 0 34 6
43 30 15 40 53 57 92 41 55 -23 63 -103 12 -130 -13 -7 -167 -11 -455 -11
l-436 0 0 -40 0 -41 449 3 c438 3 450 4 478 24 69 51 90 125 55 194 -33 66
-120 99 -187 70z"/>
<path d="M220 315 l0 -35 268 0 c278 0 292 -2 292 -42 0 -36 -61 -46 -74 -12
-7 18 -76 19 -76 2 0 -28 42 -78 77 -93 45 -19 80 -8 118 37 38 45 35 100 -9
144 l-34 34 -281 0 -281 0 0 -35z"/>
</g>
</svg>
